<svg width="86" height="55" viewBox="0 0 86 55" fill="none" xmlns="http://www.w3.org/2000/svg">
<mask id="path-1-inside-1_101_280" fill="white">
<path d="M40.1033 2.00964V13.5431C40.1033 14.4208 39.353 15.111 38.4783 15.0378L33.3268 14.607C32.6322 14.5489 32.0692 14.02 31.9678 13.3305L31.1645 7.86892C31.0562 7.13272 30.4246 6.5872 29.6804 6.5872H25.1414C24.8504 6.5872 24.5624 6.67353 24.3195 6.83378C18.0416 10.9755 14.3623 14.5985 12.4927 16.9538C11.7707 17.8636 12.5195 18.9734 13.6738 18.8446C34.5024 16.52 48.7237 16.9818 57.1237 18.0898C58.7843 18.3088 58.5832 20.2244 56.9118 20.3343C55.8704 20.4027 54.8634 20.4712 53.9777 20.5329C53.26 20.583 52.6817 21.1366 52.597 21.851L49.9012 44.568C49.7571 45.7823 51.0175 46.6064 52.0099 45.8918C61.246 39.2408 76.5287 21.9107 75.8896 20.9968C68.9805 10.8224 62.5267 7.20676 60.0134 6.61812C59.9171 6.59558 59.8215 6.5872 59.7226 6.5872H56.17C55.435 6.5872 54.8083 7.11973 54.6896 7.84505L53.5257 14.9605C53.3649 15.9436 52.2416 16.6964 51.2587 16.534C49.9207 16.313 48.1387 16.0492 46.6839 15.8416C45.9425 15.7357 45.3901 15.1018 45.3901 14.3529V2.00964C45.3901 1.18122 46.0616 0.509644 46.8901 0.509644H61.3248C61.4351 0.509644 61.5431 0.520971 61.6504 0.546611C70.1214 2.57133 80.3124 15.0453 84.9339 21.8559C85.2972 22.3912 85.2649 23.0923 84.8488 23.5878C76.6658 33.3323 58.0532 46.9461 47.6997 53.9471C46.7101 54.6162 45.3901 53.8992 45.3901 52.7046V22.9407C45.3901 22.1123 44.7213 21.4924 43.897 21.5754C43.1571 21.6499 42.252 21.7447 41.4351 21.8316C40.6763 21.9123 40.1006 22.5511 40.097 23.3143L39.9543 53.252C39.9492 54.3192 38.8598 54.9478 38.2537 54.0693C37.7936 53.4023 37.5501 52.6944 37.4681 52.2663L33.5127 24.5545C33.3981 23.7514 32.6653 23.1834 31.8612 23.2914C25.386 24.1609 19.3154 25.8766 15.9692 27.0242C15.098 27.3229 14.7488 28.3396 15.2667 29.1011C18.9344 34.4955 26.7052 42.9679 30.4368 46.8365C34.3427 50.8857 30.2108 47.7906 29.8244 47.4988C29.8035 47.483 29.7842 47.4692 29.7625 47.4544C5.13384 30.6748 1.21099 24.0996 0.586152 22.4307C0.477794 22.1413 0.566263 21.834 0.74516 21.582C11.9301 5.82718 21.358 0.966343 24.6954 0.509644H38.6033C39.4318 0.509644 40.1033 1.18122 40.1033 2.00964Z"/>
</mask>
<path d="M24.6954 0.509644V-20.4904C23.7431 -20.4904 22.7918 -20.4256 21.8483 -20.2965L24.6954 0.509644ZM0.74516 21.582L17.8687 33.7387L17.8687 33.7387L0.74516 21.582ZM0.586152 22.4307L20.2529 15.0675L20.2529 15.0675L0.586152 22.4307ZM29.7625 47.4544L17.9385 64.8094L17.9391 64.8098L29.7625 47.4544ZM29.8244 47.4988L42.4799 30.7405L42.4797 30.7404L29.8244 47.4988ZM30.4368 46.8365L45.5511 32.2571L45.5511 32.2571L30.4368 46.8365ZM15.2667 29.1011L32.6328 17.2937L32.6328 17.2937L15.2667 29.1011ZM15.9692 27.0242L9.15698 7.15978L9.15698 7.15978L15.9692 27.0242ZM31.8612 23.2914L29.0662 2.47822L29.0662 2.47822L31.8612 23.2914ZM33.5127 24.5545L12.7234 27.5218L12.7234 27.5219L33.5127 24.5545ZM37.4681 52.2663L16.6789 55.2336C16.7257 55.5619 16.7803 55.889 16.8427 56.2146L37.4681 52.2663ZM38.2537 54.0693L20.9678 65.9939L20.9678 65.9939L38.2537 54.0693ZM39.9543 53.252L60.954 53.3521L60.954 53.352L39.9543 53.252ZM40.097 23.3143L61.0967 23.4144L61.0967 23.4143L40.097 23.3143ZM41.4351 21.8316L43.6558 42.7138L43.6558 42.7138L41.4351 21.8316ZM43.897 21.5754L46.0006 42.4698L46.0006 42.4698L43.897 21.5754ZM47.6997 53.9471L35.9364 36.5509L35.9364 36.551L47.6997 53.9471ZM84.8488 23.5878L68.7671 10.0831L68.7671 10.0831L84.8488 23.5878ZM84.9339 21.8559L102.311 10.0643L102.311 10.0642L84.9339 21.8559ZM61.6504 0.546611L66.5323 -19.8781L66.5322 -19.8781L61.6504 0.546611ZM46.6839 15.8416L49.6517 -4.94768L49.6517 -4.94768L46.6839 15.8416ZM51.2587 16.534L54.6808 -4.18528L54.6807 -4.18528L51.2587 16.534ZM53.5257 14.9605L32.8011 11.5704L32.8011 11.5704L53.5257 14.9605ZM54.6896 7.84505L75.4142 11.2352L75.4142 11.2352L54.6896 7.84505ZM60.0134 6.61812L55.2247 27.0648L55.2247 27.0648L60.0134 6.61812ZM75.8896 20.9968L58.5166 32.7942C58.5708 32.874 58.6254 32.9533 58.6807 33.0323L75.8896 20.9968ZM52.0099 45.8918L39.7382 28.8505L39.7382 28.8505L52.0099 45.8918ZM49.9012 44.568L29.0475 42.0933L29.0475 42.0934L49.9012 44.568ZM52.597 21.851L31.7433 19.3763L31.7433 19.3763L52.597 21.851ZM53.9777 20.5329L55.4375 41.4821L55.4376 41.4821L53.9777 20.5329ZM56.9118 20.3343L55.5346 -0.620527L55.5346 -0.620525L56.9118 20.3343ZM57.1237 18.0898L54.3775 38.9094L54.3775 38.9094L57.1237 18.0898ZM13.6738 18.8446L16.003 39.715L16.0031 39.715L13.6738 18.8446ZM12.4927 16.9538L-3.9556 3.89811L-3.9556 3.89811L12.4927 16.9538ZM24.3195 6.83378L35.884 24.3627L35.884 24.3627L24.3195 6.83378ZM31.1645 7.86892L10.388 10.9248L10.388 10.9248L31.1645 7.86892ZM31.9678 13.3305L52.7442 10.2746L52.7442 10.2746L31.9678 13.3305ZM33.3268 14.607L31.5765 35.5339L31.5765 35.5339L33.3268 14.607ZM38.4783 15.0378L40.2286 -5.88909L40.2286 -5.88909L38.4783 15.0378ZM61.1033 13.5431V2.00964H19.1033V13.5431H61.1033ZM38.6033 -20.4904H24.6954V21.5096H38.6033V-20.4904ZM21.8483 -20.2965C14.8487 -19.3386 8.15774 -15.4531 2.77891 -11.274C-3.25361 -6.58703 -9.78518 0.138346 -16.3784 9.42542L17.8687 33.7387C22.4604 27.2709 26.2353 23.6884 28.5473 21.8921C29.7108 20.9881 30.3975 20.6185 30.5304 20.5519C30.9143 20.3594 29.827 21.0031 27.5426 21.3157L21.8483 -20.2965ZM-19.0806 29.794C-17.1096 35.0584 -13.2611 39.7562 -8.32812 44.4656C-3.05408 49.5005 5.10145 56.0634 17.9385 64.8094L41.5865 30.0995C29.7949 22.0659 23.6747 16.9513 20.6739 14.0866C17.3321 10.8962 18.9068 11.4719 20.2529 15.0675L-19.0806 29.794ZM17.169 64.2571C17.3544 64.3971 17.8934 64.8017 18.5455 65.2607C18.8656 65.486 20.3944 66.5775 22.1582 67.482C22.6595 67.739 23.7328 68.271 25.1416 68.7526C25.5418 68.8894 30.1755 70.6544 36.0425 69.5216C39.7556 68.8047 45.1296 66.6607 49.0743 61.2397C52.8589 56.0388 53.248 50.6566 53.0664 47.5982C52.7591 42.4232 50.5659 38.7805 50.308 38.3258C49.149 36.2833 47.8279 34.7631 47.4677 34.3444C46.847 33.6228 46.1832 32.9124 45.5511 32.2571L15.3225 61.4158C15.6669 61.7728 15.7284 61.8514 15.6278 61.7345C15.575 61.6731 15.3912 61.4579 15.1393 61.1263C14.9417 60.866 14.3861 60.1234 13.7786 59.0527C13.5985 58.7353 11.4435 55.1936 11.1403 50.088C10.9607 47.0644 11.3435 41.709 15.1138 36.5276C19.0443 31.1262 24.3963 28.9945 28.0802 28.2832C33.889 27.1617 38.4363 28.9111 38.7276 29.0107C40.0274 29.4551 40.9692 29.928 41.3223 30.109C42.493 30.7094 43.1605 31.2255 42.7192 30.9149C42.6768 30.8851 42.6203 30.8443 42.5615 30.8011C42.5059 30.7602 42.4724 30.7349 42.4799 30.7405L17.169 64.2571ZM45.5511 32.2571C41.7755 28.3429 35.1742 21.0315 32.6328 17.2937L-2.0995 40.9086C2.69455 47.9596 11.6349 57.5929 15.3225 61.4158L45.5511 32.2571ZM22.7814 46.8886C25.1391 46.08 29.8436 44.7508 34.6563 44.1045L29.0662 2.47822C20.9285 3.57105 13.4917 5.67325 9.15698 7.15978L22.7814 46.8886ZM12.7234 27.5219L16.6789 55.2336L58.2574 49.299L54.302 21.5872L12.7234 27.5219ZM16.8427 56.2146C17.4312 59.2892 18.7332 62.7546 20.9678 65.9939L55.5397 42.1447C56.2769 43.2134 56.7881 44.2303 57.1503 45.114C57.4936 45.9516 57.8436 47.0121 58.0936 48.318L16.8427 56.2146ZM60.954 53.352L61.0967 23.4144L19.0972 23.2142L18.9545 53.1519L60.954 53.352ZM43.6558 42.7138C44.4567 42.6287 45.3175 42.5386 46.0006 42.4698L41.7934 0.68103C40.9967 0.761239 40.0473 0.860769 39.2144 0.949336L43.6558 42.7138ZM24.3901 22.9407V52.7046H66.3901V22.9407H24.3901ZM59.463 71.3432C64.9686 67.6203 72.6379 62.1638 80.0917 56.2859C87.2396 50.6491 95.3754 43.7077 100.931 37.0925L68.7671 10.0831C66.1392 13.2124 60.8772 17.9501 54.0847 23.3066C47.598 28.4219 40.7843 33.2728 35.9364 36.5509L59.463 71.3432ZM102.311 10.0642C99.4539 5.85413 94.9482 -0.0302746 89.6529 -5.37441C85.1376 -9.93134 76.916 -17.3962 66.5323 -19.8781L56.7685 20.9713C55.3294 20.6273 55.0803 20.2104 56.1312 20.9496C57.0348 21.5851 58.295 22.65 59.8185 24.1875C62.8918 27.2891 65.7924 31.047 67.557 33.6475L102.311 10.0642ZM61.3248 -20.4904H46.8901V21.5096H61.3248V-20.4904ZM24.3901 2.00964V14.3529H66.3901V2.00964H24.3901ZM43.7161 36.6308C45.1292 36.8325 46.7297 37.0705 47.8367 37.2533L54.6807 -4.18528C53.1117 -4.44443 51.1482 -4.73403 49.6517 -4.94768L43.7161 36.6308ZM74.2502 18.3506L75.4142 11.2352L33.9651 4.45492L32.8011 11.5704L74.2502 18.3506ZM56.17 27.5872H59.7226V-14.4128H56.17V27.5872ZM55.2247 27.0648C54.2517 26.837 53.5698 26.5817 53.2228 26.4406C52.8436 26.2864 52.6168 26.1671 52.5398 26.1252C52.3906 26.0439 52.6074 26.1462 53.1263 26.5644C54.1484 27.388 56.1123 29.2536 58.5166 32.7942L93.2626 9.19935C84.8023 -3.25926 74.4556 -11.5677 64.8021 -13.8286L55.2247 27.0648ZM58.6807 33.0323C56.1281 29.3826 55.279 25.7212 55.0195 23.2126C54.7637 20.7401 55.0044 18.7307 55.2173 17.513C55.6277 15.1659 56.3539 13.4675 56.6236 12.8578C57.2304 11.4862 57.8195 10.6097 57.8389 10.5801C58.0168 10.3074 57.9297 10.4676 57.335 11.2103C56.2583 12.5548 54.4766 14.618 52.2558 17.0125C47.546 22.0907 42.5809 26.8034 39.7382 28.8505L64.2815 62.9331C70.6749 58.3292 77.9693 51.0513 83.0501 45.5732C85.7246 42.6896 88.221 39.8332 90.1187 37.4635C91.0112 36.349 92.0853 34.9534 93.0128 33.5321C93.4069 32.9282 94.2678 31.5791 95.0328 29.85C95.3816 29.0615 96.1585 27.2132 96.5897 24.7464C96.8713 23.1359 98.0232 16.0028 93.0985 8.96127L58.6807 33.0323ZM70.7549 47.0426L73.4507 24.3256L31.7433 19.3763L29.0475 42.0933L70.7549 47.0426ZM55.4376 41.4821C56.2984 41.4221 57.2777 41.3555 58.289 41.2891L55.5346 -0.620525C54.4631 -0.550106 53.4285 -0.479709 52.5178 -0.416246L55.4376 41.4821ZM59.8698 -2.72991C49.3907 -4.11212 33.4119 -4.48865 11.3446 -2.02586L16.0031 39.715C35.593 37.5287 48.0567 38.0757 54.3775 38.9094L59.8698 -2.72991ZM28.9411 30.0096C29.1561 29.7386 31.0538 27.5494 35.884 24.3627L12.755 -10.6951C5.02952 -5.5983 -0.431558 -0.54168 -3.9556 3.89811L28.9411 30.0096ZM25.1414 27.5872H29.6804V-14.4128H25.1414V27.5872ZM10.388 10.9248L11.1913 16.3864L52.7442 10.2746L51.9409 4.81303L10.388 10.9248ZM31.5765 35.5339L36.728 35.9648L40.2286 -5.88909L35.0771 -6.31995L31.5765 35.5339ZM11.1913 16.3864C12.7127 26.7298 21.1582 34.6625 31.5765 35.5339L35.0771 -6.31995C44.1063 -5.56476 51.4257 1.3103 52.7442 10.2746L11.1913 16.3864ZM35.884 24.3627C32.6911 26.4692 28.9571 27.5872 25.1414 27.5872V-14.4128C20.7436 -14.4128 16.4338 -13.1222 12.755 -10.6951L35.884 24.3627ZM73.4507 24.3256C72.353 33.575 64.8355 40.8273 55.4375 41.4821L52.5179 -0.416251C41.6845 0.338658 33.0104 8.6981 31.7433 19.3763L73.4507 24.3256ZM39.7382 28.8505C46.534 23.9567 55.3235 24.1048 61.8189 28.246C68.0848 32.241 71.6482 39.5151 70.7549 47.0425L29.0475 42.0934C28.0102 50.8352 32.1316 59.1286 39.2398 63.6605C46.5774 68.3387 56.4933 68.5415 64.2815 62.9331L39.7382 28.8505ZM59.7226 27.5872C58.6173 27.5872 57.051 27.4926 55.2247 27.0648L64.8021 -13.8286C62.7833 -14.3014 61.0257 -14.4128 59.7226 -14.4128V27.5872ZM75.4142 11.2352C73.8718 20.6644 65.7245 27.5872 56.17 27.5872V-14.4128C45.1455 -14.4128 35.7448 -6.42495 33.9651 4.45492L75.4142 11.2352ZM47.8367 37.2533C54.5981 38.3701 60.5213 36.2787 64.5819 33.4925C68.643 30.7059 73.0519 25.6764 74.2502 18.3506L32.8011 11.5704C33.8387 5.22775 37.6055 1.06616 40.8191 -1.13885C44.0321 -3.34354 48.9022 -5.13968 54.6808 -4.18528L47.8367 37.2533ZM24.3901 14.3529C24.3901 25.6045 32.6789 35.0552 43.7161 36.6308L49.6517 -4.94768C59.206 -3.58373 66.3901 4.59914 66.3901 14.3529H24.3901ZM46.8901 -20.4904C34.4636 -20.4904 24.3901 -10.4167 24.3901 2.00964H66.3901C66.3901 12.7792 57.6596 21.5096 46.8901 21.5096V-20.4904ZM66.5322 -19.8781C64.6551 -20.3267 62.894 -20.4904 61.3248 -20.4904V21.5096C59.9761 21.5096 58.4311 21.3687 56.7685 20.9713L66.5322 -19.8781ZM100.931 37.0925C107.453 29.3248 107.891 18.2869 102.311 10.0643L67.5569 33.6474C62.7038 26.4954 63.0762 16.8598 68.7671 10.0831L100.931 37.0925ZM61.0967 23.4143C61.0495 33.3199 53.5681 41.6598 43.6558 42.7138L39.2145 0.94933C27.7844 2.16482 19.1517 11.7824 19.0972 23.2143L61.0967 23.4143ZM20.9678 65.9939C23.5198 69.6932 27.7125 73.3091 33.571 74.8074C39.3487 76.2851 44.8148 75.2002 48.9924 73.0351C57.0347 68.867 60.9185 60.7986 60.954 53.3521L18.9545 53.1518C18.9849 46.7726 22.3216 39.5522 29.6664 35.7456C33.4952 33.7612 38.575 32.7354 43.9778 34.1172C49.4615 35.5197 53.2907 38.8846 55.5397 42.1447L20.9678 65.9939ZM34.6562 44.1045C23.7548 45.5685 14.1981 37.8535 12.7234 27.5218L54.302 21.5872C52.5981 9.64927 41.5757 0.798302 29.0662 2.47822L34.6562 44.1045ZM17.9391 64.8098C17.7144 64.6567 17.453 64.4716 17.1691 64.2572L42.4797 30.7404C42.1539 30.4944 41.854 30.2818 41.5858 30.0991L17.9391 64.8098ZM29.6804 27.5872C20.0069 27.5872 11.7957 20.4954 10.388 10.9248L51.9409 4.81306C50.3167 -6.22992 40.8422 -14.4128 29.6804 -14.4128V27.5872ZM-16.3784 9.4254C-18.9858 13.0981 -22.4659 20.7521 -19.0806 29.794L20.2529 15.0675C23.4215 23.5305 20.1183 30.5699 17.8687 33.7387L-16.3784 9.4254ZM32.6328 17.2937C40.0596 28.2168 34.7476 42.7849 22.7814 46.8886L9.15698 7.15978C-4.55156 11.8609 -10.5619 28.4623 -2.0995 40.9086L32.6328 17.2937ZM24.3901 52.7046C24.3901 70.3214 44.1865 81.6732 59.463 71.3432L35.9364 36.551C49.2338 27.5593 66.3901 37.477 66.3901 52.7046H24.3901ZM11.3447 -2.02587C18.0654 -2.77591 25.6334 0.0749938 30.0415 6.92823C34.8129 14.3462 33.9938 23.6439 28.9411 30.0096L-3.9556 3.89811C-9.73037 11.1735 -10.5361 21.481 -5.28219 29.6491C-0.391564 37.2525 8.12803 40.5939 16.003 39.715L11.3447 -2.02587ZM61.1033 2.00964C61.1033 -10.4168 51.0297 -20.4904 38.6033 -20.4904V21.5096C27.8338 21.5096 19.1033 12.7792 19.1033 2.00964H61.1033ZM46.0006 42.4698C34.1428 43.6636 24.3901 34.2233 24.3901 22.9407H66.3901C66.3901 10.0013 55.2997 -0.678756 41.7934 0.681033L46.0006 42.4698ZM58.289 41.2891C67.3956 40.6905 77.9144 33.9209 79.1645 21.3274C79.7561 15.3686 77.8945 9.25969 73.7211 4.56506C69.5709 -0.103541 64.2931 -2.14647 59.8698 -2.72991L54.3775 38.9094C50.7845 38.4355 46.1044 36.7142 42.3312 32.4698C38.535 28.1994 36.8301 22.6173 37.37 17.1785C38.5169 5.62504 48.0994 -0.131864 55.5346 -0.620527L58.289 41.2891ZM19.1033 13.5431C19.1033 2.1324 28.8577 -6.84013 40.2286 -5.88909L36.728 35.9648C49.8483 37.0621 61.1033 26.7092 61.1033 13.5431H19.1033Z" fill="black" mask="url(#path-1-inside-1_101_280)"/>
</svg>
